<svg width="28" height="28" viewBox="0 0 28 28" fill="none" xmlns="http://www.w3.org/2000/svg">
<path d="M1.16675 2.91699H3.32099C3.79938 2.91699 4.03857 2.91699 4.23303 3.00373C4.40445 3.0802 4.5509 3.20337 4.6556 3.35916C4.77438 3.53588 4.81536 3.77153 4.89733 4.24285L5.37689 7.00033M5.37689 7.00033L6.49181 13.4111C6.67099 14.4414 6.76058 14.9565 7.02591 15.3276C7.25954 15.6544 7.58614 15.9032 7.96319 16.0417C8.39141 16.199 8.91185 16.1486 9.95272 16.0479L22.1917 14.8635C23.213 14.7647 23.7236 14.7153 24.1096 14.4845C24.4495 14.2814 24.7215 13.9818 24.891 13.6239C25.0834 13.2175 25.0834 12.7045 25.0834 11.6784V10.6903C25.0834 9.59982 25.0834 9.05455 24.8734 8.63321C24.6886 8.26243 24.3933 7.95819 24.0281 7.76251C23.6132 7.54014 23.0681 7.524 21.9781 7.49174L5.37689 7.00033Z" stroke="#4F4F4F" stroke-width="1.8" stroke-linecap="round" stroke-linejoin="round"/>
<ellipse cx="9.91659" cy="22.1663" rx="2.33333" ry="2.33333" stroke="#4F4F4F" stroke-width="1.8"/>
<ellipse cx="21.0001" cy="22.1663" rx="2.33333" ry="2.33333" stroke="#4F4F4F" stroke-width="1.8"/>
</svg>
