<svg width="62" height="54" viewBox="0 0 62 54" fill="none" xmlns="http://www.w3.org/2000/svg">
<path fill-rule="evenodd" clip-rule="evenodd" d="M42.238 0.675376C41.2702 1.26548 40.5338 2.75763 36.3213 12.6644C33.6749 18.8877 31.4047 24.3365 31.2761 24.7728C31.1059 25.3505 31.2857 25.8098 31.9362 26.4603C33.0389 27.5631 33.6393 27.583 34.7613 26.5552C36.0914 25.3359 48.1394 5.06121 48.1394 4.04158C48.1394 1.99486 46.1723 -0.00319362 44.1604 3.83249e-06C43.711 0.000714378 42.8459 0.304471 42.238 0.675376ZM3.02692 8.61394C2.16681 9.05341 1.13367 9.8645 0.731505 10.4162C0.019184 11.3932 0 11.8316 0 27.1769C0 42.5222 0.019184 42.9606 0.731505 43.9376C1.13367 44.4894 2.16681 45.3001 3.02692 45.7399C4.55815 46.5222 4.84734 46.5393 16.5955 46.5393H28.5994V48.3156V50.092H19.3624C10.5988 50.092 10.0887 50.1286 9.41472 50.8025C9.02392 51.1933 8.70418 51.7529 8.70418 52.046C8.70418 52.3391 9.02392 52.8987 9.41472 53.2895C10.1089 53.9837 10.5988 54 30.5534 54C50.508 54 50.9979 53.9837 51.6922 53.2895C52.083 52.8987 52.4027 52.3391 52.4027 52.046C52.4027 51.7529 52.083 51.1933 51.6922 50.8025C51.0182 50.1286 50.508 50.092 41.7445 50.092H32.5074V48.3156V46.5393H44.5114C56.2595 46.5393 56.5487 46.5222 58.08 45.7399C58.9401 45.3001 59.9732 44.4894 60.3754 43.9376C61.0877 42.9606 61.1069 42.5222 61.1069 27.1769C61.1069 11.8316 61.0877 11.3932 60.3754 10.4162C59.9732 9.8645 58.9401 9.05341 58.08 8.61394C56.7232 7.9208 55.9679 7.81458 52.3928 7.81458H48.2702L47.4943 9.19517C47.0676 9.95474 46.7183 10.6742 46.7183 10.7939C46.7183 10.914 48.9566 11.012 51.6922 11.012C56.1924 11.012 56.7335 11.0795 57.3765 11.7226C58.0643 12.4104 58.0871 12.9067 58.0871 27.1631C58.0871 41.8586 58.0853 41.8948 57.3094 42.6174C56.5416 43.3326 56.2062 43.3418 30.5534 43.3418C4.90063 43.3418 4.56525 43.3326 3.79751 42.6174C3.02159 41.8948 3.01982 41.8586 3.01982 27.1631C3.01982 12.9067 3.04255 12.4104 3.73036 11.7226C4.41923 11.0337 4.91449 11.012 19.8565 11.012H35.2725L35.8438 9.58384C36.1582 8.79833 36.4154 8.0789 36.4154 7.98511C36.4154 7.89132 29.2549 7.81458 20.5035 7.81458C4.70239 7.81458 4.58053 7.82026 3.02692 8.61394ZM28.7298 26.563C27.523 27.5407 27.0789 28.7224 27.3297 30.2891C27.5855 31.8907 26.8671 33.3942 25.8461 33.3942C25.3626 33.3942 25.434 33.5875 26.1985 34.3524C27.4683 35.6221 30.4859 35.7525 32.0363 34.605C33.7569 33.3313 34.6391 31.6988 34.6391 29.7889C34.6391 28.101 34.6163 28.0651 33.5459 28.0651C32.8052 28.0651 32.1092 27.7216 31.3869 26.9993C30.163 25.7754 29.78 25.7125 28.7298 26.563Z" fill="black"/>
</svg>
